<svg width="320" height="240" viewBox="0 0 320 240" fill="none" xmlns="http://www.w3.org/2000/svg">
<path d="M134.855 127L135.935 123.683H141.183L142.263 127H145.558L140.544 112.455H136.581L131.56 127H134.855ZM136.716 121.283L138.506 115.778H138.619L140.409 121.283H136.716ZM154.248 122.355C154.255 123.818 153.254 124.585 152.167 124.585C151.024 124.585 150.285 123.783 150.278 122.497V116.091H147.252V123.037C147.259 125.587 148.751 127.142 150.945 127.142C152.586 127.142 153.765 126.297 154.255 125.018H154.369V127H157.274V116.091H154.248V122.355ZM163.714 127.178C165.475 127.178 166.391 126.162 166.81 125.253H166.938V127H169.921V112.455H166.903V117.923H166.81C166.405 117.036 165.532 115.949 163.706 115.949C161.313 115.949 159.289 117.81 159.289 121.56C159.289 125.21 161.228 127.178 163.714 127.178ZM164.672 124.77C163.188 124.77 162.378 123.449 162.378 121.545C162.378 119.656 163.174 118.357 164.672 118.357C166.143 118.357 166.966 119.599 166.966 121.545C166.966 123.491 166.128 124.77 164.672 124.77ZM172.409 127H175.434V116.091H172.409V127ZM173.928 114.685C174.83 114.685 175.569 113.996 175.569 113.151C175.569 112.312 174.83 111.624 173.928 111.624C173.034 111.624 172.295 112.312 172.295 113.151C172.295 113.996 173.034 114.685 173.928 114.685ZM182.787 127.213C186.096 127.213 188.156 124.947 188.156 121.588C188.156 118.207 186.096 115.949 182.787 115.949C179.477 115.949 177.417 118.207 177.417 121.588C177.417 124.947 179.477 127.213 182.787 127.213ZM182.801 124.869C181.274 124.869 180.493 123.47 180.493 121.567C180.493 119.663 181.274 118.257 182.801 118.257C184.3 118.257 185.081 119.663 185.081 121.567C185.081 123.47 184.3 124.869 182.801 124.869Z" fill="white"/>
<path d="M33.2122 185H34.7974V180.219H37.661C40.7101 180.219 42.0843 178.365 42.0843 176.051C42.0843 173.737 40.7101 171.909 37.6355 171.909H33.2122V185ZM34.7974 178.812V173.315H37.5843C39.7129 173.315 40.5247 174.479 40.5247 176.051C40.5247 177.624 39.7129 178.812 37.6099 178.812H34.7974ZM44.4334 185H45.9419V178.787C45.9419 177.457 46.9902 176.486 48.4221 176.486C48.8248 176.486 49.2402 176.562 49.3425 176.588V175.054C49.1699 175.041 48.7736 175.028 48.5499 175.028C47.3738 175.028 46.351 175.693 45.9931 176.665H45.8908V175.182H44.4334V185ZM54.8205 185.205C57.4796 185.205 59.2694 183.185 59.2694 180.142C59.2694 177.074 57.4796 175.054 54.8205 175.054C52.1614 175.054 50.3716 177.074 50.3716 180.142C50.3716 183.185 52.1614 185.205 54.8205 185.205ZM54.8205 183.849C52.8006 183.849 51.8801 182.111 51.8801 180.142C51.8801 178.173 52.8006 176.409 54.8205 176.409C56.8404 176.409 57.7608 178.173 57.7608 180.142C57.7608 182.111 56.8404 183.849 54.8205 183.849ZM65.9442 175.182H63.7454V174.185C63.7454 173.213 64.1545 172.702 65.1516 172.702C65.5863 172.702 65.842 172.804 65.9954 172.855L66.43 171.551C66.1999 171.449 65.7397 171.295 64.9982 171.295C63.592 171.295 62.2369 172.139 62.2369 173.827V175.182H60.6516V176.46H62.2369V185H63.7454V176.46H65.9442V175.182ZM71.7706 185.205C73.7649 185.205 75.2223 184.207 75.6825 182.724L74.2251 182.315C73.8416 183.338 72.9531 183.849 71.7706 183.849C70 183.849 68.7791 182.705 68.7088 180.602H75.8359V179.963C75.8359 176.307 73.6626 175.054 71.6172 175.054C68.9581 175.054 67.1939 177.151 67.1939 180.168C67.1939 183.185 68.9325 185.205 71.7706 185.205ZM68.7088 179.298C68.8111 177.771 69.8913 176.409 71.6172 176.409C73.2536 176.409 74.3018 177.636 74.3018 179.298H68.7088ZM85.0852 177.381C84.6122 175.987 83.5511 175.054 81.608 175.054C79.5369 175.054 78.0028 176.23 78.0028 177.892C78.0028 179.247 78.8082 180.155 80.6108 180.577L82.2472 180.96C83.2379 181.19 83.7045 181.663 83.7045 182.341C83.7045 183.185 82.8097 183.875 81.4034 183.875C80.1697 183.875 79.3963 183.344 79.1278 182.29L77.696 182.648C78.0476 184.316 79.4219 185.205 81.429 185.205C83.7109 185.205 85.2642 183.958 85.2642 182.264C85.2642 180.896 84.4077 180.033 82.6562 179.605L81.1989 179.247C80.0355 178.96 79.5114 178.57 79.5114 177.815C79.5114 176.972 80.4062 176.358 81.608 176.358C82.9247 176.358 83.468 177.087 83.7301 177.764L85.0852 177.381ZM94.4895 177.381C94.0165 175.987 92.9554 175.054 91.0123 175.054C88.9412 175.054 87.4071 176.23 87.4071 177.892C87.4071 179.247 88.2125 180.155 90.0151 180.577L91.6515 180.96C92.6422 181.19 93.1088 181.663 93.1088 182.341C93.1088 183.185 92.214 183.875 90.8077 183.875C89.574 183.875 88.8006 183.344 88.5321 182.29L87.1003 182.648C87.4519 184.316 88.8262 185.205 90.8333 185.205C93.1152 185.205 94.6685 183.958 94.6685 182.264C94.6685 180.896 93.812 180.033 92.0605 179.605L90.6032 179.247C89.4398 178.96 88.9157 178.57 88.9157 177.815C88.9157 176.972 89.8105 176.358 91.0123 176.358C92.329 176.358 92.8723 177.087 93.1344 177.764L94.4895 177.381ZM96.9393 185H98.4478V175.182H96.9393V185ZM97.7063 173.545C98.2944 173.545 98.7802 173.085 98.7802 172.523C98.7802 171.96 98.2944 171.5 97.7063 171.5C97.1183 171.5 96.6325 171.96 96.6325 172.523C96.6325 173.085 97.1183 173.545 97.7063 173.545ZM105.199 185.205C107.858 185.205 109.648 183.185 109.648 180.142C109.648 177.074 107.858 175.054 105.199 175.054C102.54 175.054 100.751 177.074 100.751 180.142C100.751 183.185 102.54 185.205 105.199 185.205ZM105.199 183.849C103.18 183.849 102.259 182.111 102.259 180.142C102.259 178.173 103.18 176.409 105.199 176.409C107.219 176.409 108.14 178.173 108.14 180.142C108.14 182.111 107.219 183.849 105.199 183.849ZM113.46 179.094C113.46 177.381 114.521 176.409 115.965 176.409C117.365 176.409 118.215 177.323 118.215 178.864V185H119.724V178.761C119.724 176.256 118.388 175.054 116.4 175.054C114.917 175.054 113.996 175.719 113.536 176.716H113.408V175.182H111.951V185H113.46V179.094ZM125.369 185.23C127.083 185.23 127.977 184.31 128.284 183.67H128.361V185H129.869V178.531C129.869 175.412 127.492 175.054 126.239 175.054C124.756 175.054 123.068 175.565 122.301 177.355L123.733 177.866C124.066 177.151 124.852 176.384 126.29 176.384C127.677 176.384 128.361 177.119 128.361 178.378V178.429C128.361 179.158 127.619 179.094 125.83 179.324C124.008 179.56 122.02 179.963 122.02 182.213C122.02 184.131 123.503 185.23 125.369 185.23ZM125.6 183.875C124.398 183.875 123.529 183.338 123.529 182.29C123.529 181.139 124.577 180.781 125.753 180.628C126.392 180.551 128.105 180.372 128.361 180.065V181.446C128.361 182.673 127.389 183.875 125.6 183.875ZM134.131 171.909H132.623V185H134.131V171.909ZM148.911 177.381C148.438 175.987 147.377 175.054 145.434 175.054C143.363 175.054 141.829 176.23 141.829 177.892C141.829 179.247 142.634 180.155 144.437 180.577L146.073 180.96C147.064 181.19 147.531 181.663 147.531 182.341C147.531 183.185 146.636 183.875 145.23 183.875C143.996 183.875 143.222 183.344 142.954 182.29L141.522 182.648C141.874 184.316 143.248 185.205 145.255 185.205C147.537 185.205 149.09 183.958 149.09 182.264C149.09 180.896 148.234 180.033 146.482 179.605L145.025 179.247C143.862 178.96 143.338 178.57 143.338 177.815C143.338 176.972 144.232 176.358 145.434 176.358C146.751 176.358 147.294 177.087 147.556 177.764L148.911 177.381ZM155.35 185.205C158.009 185.205 159.799 183.185 159.799 180.142C159.799 177.074 158.009 175.054 155.35 175.054C152.691 175.054 150.901 177.074 150.901 180.142C150.901 183.185 152.691 185.205 155.35 185.205ZM155.35 183.849C153.33 183.849 152.409 182.111 152.409 180.142C152.409 178.173 153.33 176.409 155.35 176.409C157.37 176.409 158.29 178.173 158.29 180.142C158.29 182.111 157.37 183.849 155.35 183.849ZM168.289 180.986C168.289 182.827 166.883 183.67 165.758 183.67C164.505 183.67 163.61 182.75 163.61 181.318V175.182H162.101V181.42C162.101 183.926 163.431 185.128 165.272 185.128C166.755 185.128 167.726 184.335 168.187 183.338H168.289V185H169.797V175.182H168.289V180.986ZM174.069 179.094C174.069 177.381 175.13 176.409 176.575 176.409C177.974 176.409 178.825 177.323 178.825 178.864V185H180.333V178.761C180.333 176.256 178.997 175.054 177.009 175.054C175.526 175.054 174.606 175.719 174.146 176.716H174.018V175.182H172.56V185H174.069V179.094ZM186.797 185.205C188.689 185.205 189.328 184.028 189.661 183.491H189.84V185H191.297V171.909H189.789V176.741H189.661C189.328 176.23 188.74 175.054 186.823 175.054C184.343 175.054 182.629 177.023 182.629 180.116C182.629 183.236 184.343 185.205 186.797 185.205ZM187.002 183.849C185.11 183.849 184.138 182.188 184.138 180.091C184.138 178.02 185.084 176.409 187.002 176.409C188.843 176.409 189.814 177.892 189.814 180.091C189.814 182.315 188.817 183.849 187.002 183.849ZM201.224 177.381C200.751 175.987 199.69 175.054 197.747 175.054C195.676 175.054 194.142 176.23 194.142 177.892C194.142 179.247 194.947 180.155 196.749 180.577L198.386 180.96C199.377 181.19 199.843 181.663 199.843 182.341C199.843 183.185 198.948 183.875 197.542 183.875C196.308 183.875 195.535 183.344 195.267 182.29L193.835 182.648C194.186 184.316 195.561 185.205 197.568 185.205C199.85 185.205 201.403 183.958 201.403 182.264C201.403 180.896 200.546 180.033 198.795 179.605L197.338 179.247C196.174 178.96 195.65 178.57 195.65 177.815C195.65 176.972 196.545 176.358 197.747 176.358C199.063 176.358 199.607 177.087 199.869 177.764L201.224 177.381ZM208.736 185H210.245V178.787C210.245 177.457 211.293 176.486 212.725 176.486C213.127 176.486 213.543 176.562 213.645 176.588V175.054C213.473 175.041 213.076 175.028 212.853 175.028C211.676 175.028 210.654 175.693 210.296 176.665H210.194V175.182H208.736V185ZM219.251 185.205C221.245 185.205 222.703 184.207 223.163 182.724L221.706 182.315C221.322 183.338 220.434 183.849 219.251 183.849C217.48 183.849 216.26 182.705 216.189 180.602H223.316V179.963C223.316 176.307 221.143 175.054 219.098 175.054C216.439 175.054 214.674 177.151 214.674 180.168C214.674 183.185 216.413 185.205 219.251 185.205ZM216.189 179.298C216.292 177.771 217.372 176.409 219.098 176.409C220.734 176.409 221.782 177.636 221.782 179.298H216.189ZM229.6 185.205C231.773 185.205 233.205 183.875 233.461 182.136H231.952C231.671 183.21 230.776 183.849 229.6 183.849C227.81 183.849 226.659 182.366 226.659 180.091C226.659 177.866 227.836 176.409 229.6 176.409C230.929 176.409 231.722 177.227 231.952 178.122H233.461C233.205 176.281 231.645 175.054 229.574 175.054C226.915 175.054 225.151 177.151 225.151 180.142C225.151 183.082 226.838 185.205 229.6 185.205ZM239.654 185.205C242.314 185.205 244.103 183.185 244.103 180.142C244.103 177.074 242.314 175.054 239.654 175.054C236.995 175.054 235.206 177.074 235.206 180.142C235.206 183.185 236.995 185.205 239.654 185.205ZM239.654 183.849C237.635 183.849 236.714 182.111 236.714 180.142C236.714 178.173 237.635 176.409 239.654 176.409C241.674 176.409 242.595 178.173 242.595 180.142C242.595 182.111 241.674 183.849 239.654 183.849ZM246.406 185H247.915V178.787C247.915 177.457 248.963 176.486 250.395 176.486C250.797 176.486 251.213 176.562 251.315 176.588V175.054C251.143 175.041 250.746 175.028 250.523 175.028C249.346 175.028 248.324 175.693 247.966 176.665H247.863V175.182H246.406V185ZM256.512 185.205C258.404 185.205 259.043 184.028 259.376 183.491H259.555V185H261.012V171.909H259.503V176.741H259.376C259.043 176.23 258.455 175.054 256.537 175.054C254.057 175.054 252.344 177.023 252.344 180.116C252.344 183.236 254.057 185.205 256.512 185.205ZM256.716 183.849C254.824 183.849 253.853 182.188 253.853 180.091C253.853 178.02 254.799 176.409 256.716 176.409C258.557 176.409 259.529 177.892 259.529 180.091C259.529 182.315 258.532 183.849 256.716 183.849ZM263.984 185H265.493V175.182H263.984V185ZM264.751 173.545C265.339 173.545 265.825 173.085 265.825 172.523C265.825 171.96 265.339 171.5 264.751 171.5C264.163 171.5 263.677 171.96 263.677 172.523C263.677 173.085 264.163 173.545 264.751 173.545ZM269.764 179.094C269.764 177.381 270.825 176.409 272.27 176.409C273.67 176.409 274.52 177.323 274.52 178.864V185H276.028V178.761C276.028 176.256 274.692 175.054 272.705 175.054C271.222 175.054 270.301 175.719 269.841 176.716H269.713V175.182H268.256V185H269.764V179.094ZM282.748 188.886C285.1 188.886 286.992 187.812 286.992 185.281V175.182H285.535V176.741H285.382C285.049 176.23 284.436 175.054 282.518 175.054C280.038 175.054 278.325 177.023 278.325 180.04C278.325 183.108 280.115 184.847 282.492 184.847C284.41 184.847 285.024 183.722 285.356 183.185H285.484V185.179C285.484 186.815 284.333 187.557 282.748 187.557C280.965 187.557 280.338 186.617 279.936 186.074L278.734 186.918C279.347 187.947 280.556 188.886 282.748 188.886ZM282.697 183.491C280.805 183.491 279.833 182.06 279.833 180.014C279.833 178.02 280.779 176.409 282.697 176.409C284.538 176.409 285.509 177.892 285.509 180.014C285.509 182.188 284.512 183.491 282.697 183.491ZM34.7958 211.182H32.5969V210.185C32.5969 209.213 33.006 208.702 34.0032 208.702C34.4379 208.702 34.6935 208.804 34.8469 208.855L35.2816 207.551C35.0515 207.449 34.5913 207.295 33.8498 207.295C32.4435 207.295 31.0884 208.139 31.0884 209.827V211.182H29.5032V212.46H31.0884V221H32.5969V212.46H34.7958V211.182ZM40.4943 221.205C43.1534 221.205 44.9432 219.185 44.9432 216.142C44.9432 213.074 43.1534 211.054 40.4943 211.054C37.8352 211.054 36.0455 213.074 36.0455 216.142C36.0455 219.185 37.8352 221.205 40.4943 221.205ZM40.4943 219.849C38.4744 219.849 37.554 218.111 37.554 216.142C37.554 214.173 38.4744 212.409 40.4943 212.409C42.5142 212.409 43.4347 214.173 43.4347 216.142C43.4347 218.111 42.5142 219.849 40.4943 219.849ZM47.2459 221H48.7544V214.787C48.7544 213.457 49.8027 212.486 51.2346 212.486C51.6373 212.486 52.0527 212.562 52.155 212.588V211.054C51.9824 211.041 51.5861 211.028 51.3624 211.028C50.1863 211.028 49.1635 211.693 48.8056 212.665H48.7033V211.182H47.2459V221ZM67.0341 211.182H65.3977L62.6875 219.006H62.5852L59.875 211.182H58.2386L61.8693 221H63.4034L67.0341 211.182ZM69.0252 221H70.5337V211.182H69.0252V221ZM69.7923 209.545C70.3803 209.545 70.8661 209.085 70.8661 208.523C70.8661 207.96 70.3803 207.5 69.7923 207.5C69.2042 207.5 68.7184 207.96 68.7184 208.523C68.7184 209.085 69.2042 209.545 69.7923 209.545ZM77.0041 221.205C78.8961 221.205 79.5353 220.028 79.8677 219.491H80.0467V221H81.5041V207.909H79.9956V212.741H79.8677C79.5353 212.23 78.9473 211.054 77.0297 211.054C74.5495 211.054 72.8365 213.023 72.8365 216.116C72.8365 219.236 74.5495 221.205 77.0041 221.205ZM77.2086 219.849C75.3166 219.849 74.345 218.188 74.345 216.091C74.345 214.02 75.291 212.409 77.2086 212.409C79.0495 212.409 80.0211 213.892 80.0211 216.091C80.0211 218.315 79.024 219.849 77.2086 219.849ZM88.5929 221.205C90.5872 221.205 92.0446 220.207 92.5048 218.724L91.0474 218.315C90.6639 219.338 89.7754 219.849 88.5929 219.849C86.8223 219.849 85.6014 218.705 85.5311 216.602H92.6582V215.963C92.6582 212.307 90.4849 211.054 88.4395 211.054C85.7804 211.054 84.0162 213.151 84.0162 216.168C84.0162 219.185 85.7548 221.205 88.5929 221.205ZM85.5311 215.298C85.6333 213.771 86.7136 212.409 88.4395 212.409C90.0758 212.409 91.1241 213.636 91.1241 215.298H85.5311ZM98.9416 221.205C101.601 221.205 103.39 219.185 103.39 216.142C103.39 213.074 101.601 211.054 98.9416 211.054C96.2825 211.054 94.4927 213.074 94.4927 216.142C94.4927 219.185 96.2825 221.205 98.9416 221.205ZM98.9416 219.849C96.9217 219.849 96.0012 218.111 96.0012 216.142C96.0012 214.173 96.9217 212.409 98.9416 212.409C100.961 212.409 101.882 214.173 101.882 216.142C101.882 218.111 100.961 219.849 98.9416 219.849ZM107.943 219.21H106.307L106.23 219.926C106.045 221.658 105.68 223.384 105.514 224.196H106.665C106.972 223.327 107.624 221.358 107.841 219.901L107.943 219.21ZM118.69 221.23C120.403 221.23 121.298 220.31 121.605 219.67H121.681V221H123.19V214.531C123.19 211.412 120.812 211.054 119.559 211.054C118.076 211.054 116.389 211.565 115.622 213.355L117.053 213.866C117.386 213.151 118.172 212.384 119.61 212.384C120.997 212.384 121.681 213.119 121.681 214.378V214.429C121.681 215.158 120.94 215.094 119.15 215.324C117.328 215.56 115.34 215.963 115.34 218.213C115.34 220.131 116.823 221.23 118.69 221.23ZM118.92 219.875C117.718 219.875 116.849 219.338 116.849 218.29C116.849 217.139 117.897 216.781 119.073 216.628C119.713 216.551 121.426 216.372 121.681 216.065V217.446C121.681 218.673 120.71 219.875 118.92 219.875ZM129.651 221.205C131.543 221.205 132.182 220.028 132.514 219.491H132.693V221H134.151V207.909H132.642V212.741H132.514C132.182 212.23 131.594 211.054 129.676 211.054C127.196 211.054 125.483 213.023 125.483 216.116C125.483 219.236 127.196 221.205 129.651 221.205ZM129.855 219.849C127.963 219.849 126.991 218.188 126.991 216.091C126.991 214.02 127.938 212.409 129.855 212.409C131.696 212.409 132.668 213.892 132.668 216.091C132.668 218.315 131.67 219.849 129.855 219.849ZM145.151 211.182H143.515L140.805 219.006H140.702L137.992 211.182H136.356L139.987 221H141.521L145.151 211.182ZM150.907 221.205C152.902 221.205 154.359 220.207 154.819 218.724L153.362 218.315C152.978 219.338 152.09 219.849 150.907 219.849C149.137 219.849 147.916 218.705 147.846 216.602H154.973V215.963C154.973 212.307 152.799 211.054 150.754 211.054C148.095 211.054 146.331 213.151 146.331 216.168C146.331 219.185 148.069 221.205 150.907 221.205ZM147.846 215.298C147.948 213.771 149.028 212.409 150.754 212.409C152.39 212.409 153.439 213.636 153.439 215.298H147.846ZM157.267 221H158.776V214.787C158.776 213.457 159.824 212.486 161.256 212.486C161.659 212.486 162.074 212.562 162.176 212.588V211.054C162.004 211.041 161.608 211.028 161.384 211.028C160.208 211.028 159.185 211.693 158.827 212.665H158.725V211.182H157.267V221ZM168.85 211.182H166.753V208.83H165.245V211.182H163.762V212.46H165.245V218.597C165.245 220.31 166.625 221.128 167.904 221.128C168.466 221.128 168.824 221.026 169.029 220.949L168.722 219.594C168.594 219.619 168.39 219.67 168.057 219.67C167.392 219.67 166.753 219.466 166.753 218.188V212.46H168.85V211.182ZM171.119 221H172.627V211.182H171.119V221ZM171.886 209.545C172.474 209.545 172.96 209.085 172.96 208.523C172.96 207.96 172.474 207.5 171.886 207.5C171.298 207.5 170.812 207.96 170.812 208.523C170.812 209.085 171.298 209.545 171.886 209.545ZM182.345 213.381C181.872 211.987 180.811 211.054 178.868 211.054C176.797 211.054 175.263 212.23 175.263 213.892C175.263 215.247 176.068 216.155 177.871 216.577L179.507 216.96C180.498 217.19 180.964 217.663 180.964 218.341C180.964 219.185 180.069 219.875 178.663 219.875C177.43 219.875 176.656 219.344 176.388 218.29L174.956 218.648C175.307 220.316 176.682 221.205 178.689 221.205C180.971 221.205 182.524 219.958 182.524 218.264C182.524 216.896 181.667 216.033 179.916 215.605L178.459 215.247C177.295 214.96 176.771 214.57 176.771 213.815C176.771 212.972 177.666 212.358 178.868 212.358C180.184 212.358 180.728 213.087 180.99 213.764L182.345 213.381ZM184.795 221H186.303V211.182H184.795V221ZM185.562 209.545C186.15 209.545 186.636 209.085 186.636 208.523C186.636 207.96 186.15 207.5 185.562 207.5C184.974 207.5 184.488 207.96 184.488 208.523C184.488 209.085 184.974 209.545 185.562 209.545ZM190.575 215.094C190.575 213.381 191.636 212.409 193.08 212.409C194.48 212.409 195.33 213.323 195.33 214.864V221H196.839V214.761C196.839 212.256 195.503 211.054 193.515 211.054C192.032 211.054 191.112 211.719 190.651 212.716H190.524V211.182H189.066V221H190.575V215.094ZM203.559 224.886C205.911 224.886 207.803 223.812 207.803 221.281V211.182H206.346V212.741H206.192C205.86 212.23 205.246 211.054 203.328 211.054C200.848 211.054 199.135 213.023 199.135 216.04C199.135 219.108 200.925 220.847 203.303 220.847C205.221 220.847 205.834 219.722 206.167 219.185H206.294V221.179C206.294 222.815 205.144 223.557 203.559 223.557C201.775 223.557 201.149 222.617 200.746 222.074L199.544 222.918C200.158 223.947 201.366 224.886 203.559 224.886ZM203.507 219.491C201.615 219.491 200.644 218.06 200.644 216.014C200.644 214.02 201.59 212.409 203.507 212.409C205.348 212.409 206.32 213.892 206.32 216.014C206.32 218.188 205.323 219.491 203.507 219.491ZM212.814 219.21H211.178L211.101 219.926C210.916 221.658 210.551 223.384 210.385 224.196H211.536C211.843 223.327 212.495 221.358 212.712 219.901L212.814 219.21ZM220.672 224.682H222.18V219.491H222.308C222.64 220.028 223.28 221.205 225.172 221.205C227.626 221.205 229.339 219.236 229.339 216.116C229.339 213.023 227.626 211.054 225.146 211.054C223.229 211.054 222.64 212.23 222.308 212.741H222.129V211.182H220.672V224.682ZM222.155 216.091C222.155 213.892 223.126 212.409 224.967 212.409C226.885 212.409 227.831 214.02 227.831 216.091C227.831 218.188 226.859 219.849 224.967 219.849C223.152 219.849 222.155 218.315 222.155 216.091ZM235.629 221.205C238.288 221.205 240.078 219.185 240.078 216.142C240.078 213.074 238.288 211.054 235.629 211.054C232.97 211.054 231.18 213.074 231.18 216.142C231.18 219.185 232.97 221.205 235.629 221.205ZM235.629 219.849C233.609 219.849 232.689 218.111 232.689 216.142C232.689 214.173 233.609 212.409 235.629 212.409C237.649 212.409 238.569 214.173 238.569 216.142C238.569 218.111 237.649 219.849 235.629 219.849ZM242.381 221H243.889V214.787C243.889 213.457 244.938 212.486 246.369 212.486C246.772 212.486 247.188 212.562 247.29 212.588V211.054C247.117 211.041 246.721 211.028 246.497 211.028C245.321 211.028 244.298 211.693 243.94 212.665H243.838V211.182H242.381V221ZM253.963 211.182H251.866V208.83H250.358V211.182H248.875V212.46H250.358V218.597C250.358 220.31 251.739 221.128 253.017 221.128C253.58 221.128 253.938 221.026 254.142 220.949L253.835 219.594C253.707 219.619 253.503 219.67 253.17 219.67C252.506 219.67 251.866 219.466 251.866 218.188V212.46H253.963V211.182ZM260.604 211.182H258.406V210.185C258.406 209.213 258.815 208.702 259.812 208.702C260.246 208.702 260.502 208.804 260.656 208.855L261.09 207.551C260.86 207.449 260.4 207.295 259.658 207.295C258.252 207.295 256.897 208.139 256.897 209.827V211.182H255.312V212.46H256.897V221H258.406V212.46H260.604V211.182ZM266.303 221.205C268.962 221.205 270.752 219.185 270.752 216.142C270.752 213.074 268.962 211.054 266.303 211.054C263.644 211.054 261.854 213.074 261.854 216.142C261.854 219.185 263.644 221.205 266.303 221.205ZM266.303 219.849C264.283 219.849 263.363 218.111 263.363 216.142C263.363 214.173 264.283 212.409 266.303 212.409C268.323 212.409 269.243 214.173 269.243 216.142C269.243 218.111 268.323 219.849 266.303 219.849ZM274.563 207.909H273.055V221H274.563V207.909ZM277.326 221H278.835V211.182H277.326V221ZM278.093 209.545C278.681 209.545 279.167 209.085 279.167 208.523C279.167 207.96 278.681 207.5 278.093 207.5C277.505 207.5 277.019 207.96 277.019 208.523C277.019 209.085 277.505 209.545 278.093 209.545ZM285.586 221.205C288.245 221.205 290.035 219.185 290.035 216.142C290.035 213.074 288.245 211.054 285.586 211.054C282.927 211.054 281.137 213.074 281.137 216.142C281.137 219.185 282.927 221.205 285.586 221.205ZM285.586 219.849C283.566 219.849 282.646 218.111 282.646 216.142C282.646 214.173 283.566 212.409 285.586 212.409C287.606 212.409 288.526 214.173 288.526 216.142C288.526 218.111 287.606 219.849 285.586 219.849Z" fill="white"/>
<g clip-path="url(#clip0_6_99)">
<path d="M148.371 50V47.102H158.587V40.93C150.391 40.113 144.038 33.272 144 24.938V24.934H146.881C146.895 29.331 149.074 33.216 152.407 35.581L152.448 35.608C154.52 37.153 157.131 38.082 159.959 38.082C160.196 38.082 160.432 38.075 160.667 38.063L160.634 38.064C167.627 37.725 173.177 32.004 173.24 24.973V24.967H176.138C176.138 25 176.138 25.039 176.138 25.078C176.138 29.228 174.531 33.003 171.905 35.815L171.913 35.806C169.306 38.656 165.696 40.55 161.645 40.926L161.582 40.931V47.021H171.831V49.968L148.371 50Z" fill="#CCBA8D"/>
<path d="M170.326 11.706V16.11H163.04V19.024H170.309V23.412H163.056V26.359H170.194C169.475 31.369 165.212 35.177 160.06 35.177C154.908 35.177 150.645 31.369 149.932 26.414L149.926 26.359H157.097V23.461H149.861V19.057H157.097V16.126H149.861V11.755H157.097V8.792H149.959C150.724 3.832 154.963 0.0780029 160.078 0.0780029C165.187 0.0780029 169.422 3.823 170.187 8.718L170.194 8.776H163.039V11.707L170.326 11.706Z" fill="#BDAE82"/>
</g>
<defs>
<clipPath id="clip0_6_99">
<rect width="32" height="50" fill="white" transform="translate(144)"/>
</clipPath>
</defs>
</svg>
